<?xml version="1.0" encoding="UTF-8" standalone="no"?>
<!DOCTYPE svg PUBLIC "-//W3C//DTD SVG 1.1//EN" "http://www.w3.org/Graphics/SVG/1.1/DTD/svg11.dtd">
<svg width="100%" height="100%" viewBox="0 0 166 49" version="1.1" xmlns="http://www.w3.org/2000/svg" xmlns:xlink="http://www.w3.org/1999/xlink" xml:space="preserve" xmlns:serif="http://www.serif.com/" style="fill-rule:evenodd;clip-rule:evenodd;stroke-linejoin:round;stroke-miterlimit:2;">
    <g>
        <path d="M0,14.13L0,14.253L27.95,27.383L56,14.209L56,14.176L27.95,1L0,14.13ZM10.077,14.192L27.95,5.795L45.827,14.192L27.95,22.588L10.076,14.192L10.077,14.192ZM27.95,32.483L0,19.55L0,24.334L27.95,37.298L56,24.289L56,19.505L27.95,32.483ZM27.95,42.186L0,29.25L0,34.033L27.95,47L56,33.99L56,29.206L27.95,42.186Z" style="fill:white;"/>
        <g transform="matrix(1,0,0,1,72,0)">
            <path d="M87.56,24.152C87.576,22.087 86.803,20.093 85.399,18.579C84.738,17.871 83.943,17.302 83.059,16.906C82.163,16.504 81.191,16.299 80.209,16.305C79.199,16.305 78.248,16.505 77.357,16.906C76.473,17.302 75.678,17.871 75.017,18.579C73.613,20.093 72.84,22.088 72.857,24.153C72.84,26.217 73.614,28.212 75.017,29.726C75.678,30.434 76.473,31.002 77.357,31.398C78.253,31.8 79.226,32.006 80.208,32C81.218,32 82.168,31.8 83.06,31.398C83.943,31.002 84.739,30.434 85.399,29.726C86.803,28.212 87.576,26.217 87.559,24.152L87.56,24.152ZM93.975,24.152C93.975,26.084 93.618,27.875 92.905,29.525C92.22,31.134 91.221,32.589 89.965,33.805C88.718,35.01 87.255,35.961 85.577,36.659C83.899,37.358 82.109,37.707 80.208,37.707C78.308,37.707 76.525,37.358 74.862,36.659C73.237,35.986 71.756,35.01 70.496,33.783C69.243,32.556 68.244,31.094 67.556,29.481C66.843,27.831 66.486,26.055 66.486,24.152C66.486,22.279 66.85,20.518 67.578,18.868C68.283,17.252 69.288,15.784 70.54,14.543C71.795,13.304 73.278,12.32 74.907,11.645C76.586,10.943 78.389,10.587 80.208,10.597C82.109,10.597 83.898,10.947 85.577,11.645C87.255,12.343 88.717,13.295 89.965,14.499C91.213,15.703 92.193,17.137 92.905,18.801C93.618,20.466 93.975,22.25 93.975,24.152ZM64.258,36.905C63.708,37.158 63.133,37.353 62.543,37.485C61.905,37.633 61.243,37.707 60.561,37.707C59.634,37.71 58.712,37.583 57.821,37.328C56.976,37.092 56.192,36.674 55.526,36.102C54.873,35.537 54.353,34.802 53.966,33.895C53.581,32.988 53.388,31.895 53.388,30.618L53.388,0.029L59.937,0.029L59.937,29.503C59.937,30.573 60.152,31.309 60.583,31.71C61.013,32.111 61.526,32.312 62.12,32.312C62.862,32.312 63.575,32.089 64.258,31.643L64.258,36.905ZM50.492,11.22L38.908,41.854C38.047,44.143 36.918,45.793 35.522,46.804C34.126,47.814 32.462,48.319 30.532,48.319C30.235,48.319 29.909,48.297 29.552,48.253C29.206,48.21 28.863,48.143 28.527,48.052L26.389,42.077C26.89,42.313 27.412,42.5 27.949,42.634C28.483,42.768 28.988,42.835 29.463,42.835C30.473,42.835 31.393,42.605 32.225,42.144C33.057,41.684 33.695,40.829 34.141,39.58L35.032,36.994L25.097,11.221L32.092,11.221L38.017,27.809L43.587,11.221L50.492,11.221L50.492,11.22ZM23.538,7.342L6.786,7.342L6.786,15.636L23.315,15.636L23.315,21.254L6.785,21.254L6.785,37.038L0.015,37.038L0.015,1.412L23.539,1.412L23.539,7.342L23.538,7.342Z" style="fill:white;"/>
        </g>
    </g>
</svg>
